<svg width="120.00000000000001" height="120.00000000000001" xmlns="http://www.w3.org/2000/svg">
 <defs>
  <style>.cls-1{fill:#151219}</style>
 </defs>
 <g>
  <title>background</title>
  <rect fill="none" id="canvas_background" height="122" width="122" y="-1" x="-1"/>
 </g>
 <g>
  <title>Layer 1</title>
  <g id="レイヤー_2">
   <g stroke="null" id="レイヤー_1-2">
    <path stroke="null" fill="#ffffff" d="m51.441244,120.148935a97.016074,85.73 0 0 1 -19.566172,-3.49c-7.038843,-1.82 -16.408878,-5 -16.488093,-11.6c0,-4.73 3.055446,-8.78 9.4832,-12.39a89.581155,79.16 0 0 1 9.053174,-4.22c2.761218,-1.12 8.294971,-3.26 12.448114,-4.64l0,-58.79l-24.95281,-2.38l0,63.28a4.798182,4.24 0 0 1 -5.069777,4.23a4.809499,4.25 0 0 1 -5.115043,-4.23l0,-68.32a5.12636,4.53 0 0 1 5.115043,-4.52a4.526587,4 0 0 1 0.54319,0.07l35.081049,3.35a5.103727,4.51 0 0 1 4.526587,4.5l0,59.15c4.832132,-1.73 9.517149,-3.51 13.579761,-5.15c12.84419,-5.18 21.501288,-10.46 26.423951,-16.19c5.975095,-6.87 6.891729,-15.38 6.608817,-21.3a35.454492,31.33 0 0 0 -7.095425,-17.58a31.120285,27.5 0 0 0 -11.859658,-8.63a35.137631,31.05 0 0 0 -9.415301,-2.43c-3.39494,-0.41 -5.069777,-2.55 -4.888714,-4.69s2.172762,-3.75 5.024511,-4c4.888714,-0.36 8.509983,0.73 13.443963,2.68a43.91921,38.81 0 0 1 16.193865,11.6a46.227769,40.85 0 0 1 9.053174,22.62a50.754356,44.85 0 0 1 -2.749902,17.41a41.655916,36.81 0 0 1 -6.156158,9.83c-8.962642,10.33 -24.850962,16.71 -30.056537,18.83c-4.911347,2 -15.843054,6 -17.993183,6.76l0,25.74a5.137676,4.54 0 0 1 -1.754052,3.41a5.194258,4.59 0 0 1 -3.213877,1.09l-0.203696,0zm-4.866081,-26.6c-3.123345,1 -7.921527,2.56 -9.732162,3.3s-6.880412,2.83 -9.121073,4.55c-0.565823,0.43 -2.353825,1.93 -1.912483,3.15s2.523572,1.87 10.773277,3.83c2.930965,0.7 6.371171,1.37 9.992441,2l0,-16.83z" id="symbol"/>
   </g>
  </g>
 </g>
</svg>