<svg xmlns="http://www.w3.org/2000/svg" width="515" height="582" style="width:100%;height:100%"><defs><clipPath id="a"><path d="M0 0h515v582H0z"/></clipPath></defs><g clip-path="url(#a)"><g display="block"><path fill="#F0F4F9" d="M544-5v589H-14V-5h558z"/><path d="M544-5v589H-14V-5h558z" fill="none"/></g><g display="block"><path fill="#FBF8EF" d="M391 590c5-3 11-18 11-24 0-7-4-13-9-16 2-3 4-7 4-11 0-8-5-14-12-17 3-3 4-7 4-11 0-8-6-15-14-17a18 18 0 00-6-26l2-7c0-8-5-14-12-17l1-5c0-9-9-17-19-17-2-8-9-14-18-14-3 0-6 0-8 2-3-6-9-11-17-11-7 0-13 4-16 10l-7-1c-9 0-16 6-18 14-10 0-19 8-19 17l1 5c-7 3-12 9-12 17l2 7a17 17 0 00-7 26c-9 2-14 9-14 17 0 4 1 8 3 11-6 3-11 9-11 17 0 4 1 8 4 11-6 3-9 9-9 16 0 6 3 12 8 15"/><path fill="#E2E2E4" d="M393 550c2-3 4-7 4-11 0-8-5-14-12-17 3-3 4-7 4-11 0-8-6-15-14-17a18 18 0 00-6-26l2-7c0-8-5-14-12-17l1-5c0-6-4-11-8-14 0 4 0 9-3 11l-27 31 10 79s-2 7-13 15c-10 7-31 13-31 13s12 6 16 12l87 4c5-3 11-18 11-24 0-7-4-13-9-16zM249 581l-4-35-23 26 13 13"/><path fill="#FBF8EF" d="M335 510v-3c0-9-6-16-13-16s-12 7-12 16c0 4 1 8 4 11-3 8 1 17 9 20s17-1 20-8c3-8-1-17-8-20zM355 434a12 12 0 10-22 6c-3 0-7 1-9 3-4 4-2 6 1 9 4 4 8 7 12 3l2-3a7 7 0 008-6v-1c5-1 8-6 8-11zM252 546a14 14 0 10-5 1c-4 1-6 5-6 9s2 8 5 9l-1 4c0 4 3 7 7 7s7-3 7-7c0-2-1-4-3-5 2-2 3-5 3-8 0-5-3-9-7-10z"/></g><path fill="#F0C8AF" d="M337 544c2-2 2-5 0-7-3-3-6-3-8-2l-30 27c-1 2-1 5 1 8 2 2 6 3 8 1l29-26v-1zM251 540c2-2 1-6-2-8-2-2-6-2-8 0l-25 31c-2 2-1 5 1 7 3 2 6 2 8 1l26-31z" display="block"/><g display="block"><path fill="#FCF8EF" d="M353 535c0 9-7 16-15 16s-15-7-15-16c0-8 7-15 15-15s15 7 15 15z"/><path fill="#E2E2E4" d="M355 515c-7 0-13 5-13 13h-1a12 12 0 1013 13v-1l1 1c7 0 13-6 13-13 0-8-6-13-13-13z"/></g><g display="block"><path fill="#F0C8AF" d="M326 455c5-2 35 11 42 23-9 10-21 6-25 3-5-2-16-16-17-26z"/><path fill="#D2B4A7" d="M330 455l-1 1s27 15 30 26l1 2 8-6c-6-10-28-21-38-23z"/></g><g display="block"><path fill="#F0C8AF" d="M261 461c-6 18-15 43 31 42 42-1 39-20 30-43-9-18-53-20-61 1zM255 450c-6-1-35 13-41 23 9 7 21 2 25 0 5-3 16-15 16-23z"/><path fill="#E1A28E" d="M288 487h-3l-1-1v-1c-1-1 0-1 1-1h3l1 1-1 1v1z"/><path fill="#F9F1DF" d="M310 491v-1c-4 0-6-1-9-3s-6-5-15 0c-8-4-11-2-14 0-2 1-4 3-7 3v1c4 2 7 2 10 2 4 0 7-1 11-5 4 4 8 6 12 6l12-3z"/><path fill="#E39F99" d="M307 483c0 2 2 3 4 2 3 0 5-1 5-2s-2-2-5-2l-4 2zM267 481l-4 2-4-2 4-2c3 0 5 1 4 2z"/><path fill="#C9A14A" d="M275 442c2 3 2 11-4 14-3-2-8-1-8 1-1 4 4 3 4 6 1 2-11 5-15-7-2-6 0-12 4-16 6-5 14-5 19 2z"/><path fill="#A7894D" d="M271 456c6-3 6-11 4-14-4-6-10-7-16-4 4 0 14 2 9 13-1 0-6 3-6 5v2s2 5 4 6l1-1c0-3-5-2-4-6 0-2 5-3 8-1z"/><path fill="#4B606F" d="M262 445c-3-2 7 4 4 10 2 1 4-6-4-10zM264 456c-1-2-3-4-5-4l4 4h1z"/><path fill="#FBF8EF" d="M275 441c0 5 4 9 9 10 3 0 6-2 7-4 2 2 5 4 9 4 5 0 10-4 10-9"/><path fill="#C9A14A" d="M312 442c-3 2-6 9-1 15 4-1 8 1 7 4s-5 1-6 3c-1 3 9 9 17-1 3-5 4-11 1-16-3-7-11-10-18-5z"/><path fill="#A7894D" d="M330 447c-2-5-8-8-14-7 3 1 15 6 8 25l-1 3 5-4a103 103 0 003-5c2-4 2-8-1-12z"/><path fill="#4B606F" d="M322 448c4-1-7 3-6 9-3 0-2-7 6-9zM324 457l-6 2c-1-1 3-3 6-2z"/></g><path fill="#4B606F" d="M280 475l-5 1-2-2 4-1c2 0 3 1 3 2zM297 476h4c2 0 3-1 3-2h-4c-2 0-3 1-3 2z" display="block"/><g display="block"><path fill="#7679C4" d="M388 496c2-11-6-25-6-25-6-12-23 19-20 29l2 6"/><path fill="#686BAF" d="M382 471l-2-1v4c4 20-4 23 3 23h3l2-1c2-11-6-25-6-25z"/></g><g display="block"><path fill="#7679C4" d="M385 582v-1l-1-11h-2l-23 2c-2 0-6 1-6 5l2 5h30z"/><path fill="#C5CED4" d="M362 582c1-3 0-8-1-11l-2 1c-2 0-6 1-6 5l2 5h7z"/><path fill="#585E95" d="M369 582h15l-3-12h-9v4c1 2 0 4-2 6l-1 2z" opacity=".4"/><path fill="#7679C4" d="M431 584l-6-26c-3-15-5-18-8-21-12-9-39 11-42 35v12"/><path fill="#FFF" d="M405 557c1 13-21 28-21 28s-7-9-8-22c-2-14-1-26 11-28 13-2 17 8 18 22z"/><path fill="#585E95" d="M406 552l-26 5c-3 4-4 10-5 15 8 5 21 8 38-1" opacity=".4"/><path fill="#686BAF" d="M413 571h1c3 0 6 3 5 6-2 4-13 3-15 5l1 2h26a2690 2690 0 00-8-34l-17 2"/><path fill="#4B606F" d="M396 575l-5-6a388 388 0 00-1-1l-4-5 2-3-1-1-2 3h-1v1l-4 7a297 297 0 01-1 0l-1 3v1l2-3 3 5-3 3 1 1 3-3 3 5h1l-4-6 6-6a73 73 0 005 5h1zm-12 0l-3-4 4-7 4 5-5 6z"/><path fill="#7679C4" d="M441 521s7 26-1 35c-4 5-10 9-13 10l-13 4-22 2h-1c-30-1-43-9-43-30-1-22 12-38 18-44l12-6c7-3 18-3 26-2 13 1 28 7 28 7l9 24z"/><path fill="#E1C080" d="M420 543c2 16-14 23-39 22-16-1-24-6-28-12-3-5-3-11-2-13 1-13 13-27 28-26 6 1 36-1 41 29z"/><path fill="#FFF" d="M360 533c0 2 2 1 3 1 2 0 4 1 4-2l-4-2c-2 0-3 2-3 3zM396 534c0 2-2 1-4 1s-5 1-3-3l4-2 3 4zM388 550c0 5-6 8-12 8-6-1-10-4-10-8 0-3 3-8 10-8 6 0 12 4 12 8z"/><path fill="#4B606F" d="M380 547c0 1-2 3-5 3-2 0-4-1-4-3l4-2c2 0 5 0 5 2z"/><path fill="#FFF" d="M376 546l-2 2-1-1 1-1h2z"/><path fill="#E39F99" d="M375 549v1l1 1 1 1v2h-4v-2l2-1"/><path stroke-linecap="round" stroke-linejoin="round" stroke="#4B606F" d="M375 549v1l1 1 1 1v2h-4v-2l2-1" fill="none"/><path fill="#D1D1D1" d="M354 530c6-3 28-11 64 5-8-22-34-20-39-21-11 0-20 7-25 16z"/><path fill="#FDFFFF" d="M382 507l8 10v1l-10 7h-2l-6-9 8-10 2 1z"/><path fill="#9FA0C2" d="M382 507l-1-1-2 19h1l10-7v-1l-8-10z" opacity=".4"/><path fill="#686BAF" d="M429 510l2 6c1 5 18 42-28 55l10-1h1l13-4c3-1 9-5 13-10 8-9 1-35 1-35l-12-11z"/><path fill="#7679C4" d="M393 582c-4 0-8-1-8-6 0-4 5-5 7-5h22s5 1 5 5-6 5-6 5-10 2-20 1z"/><path fill="#C5CED4" d="M392 571c-2 0-5 1-6 3h-1v2c0 5 4 6 8 6 3-2 0-11 0-11h-1z"/></g><g display="block"><path fill="#7679C4" d="M432 498c24 6 27 27 25 31 0 1-2 3-20-6l-10-13-1-8c3-5 6-4 6-4z"/><path fill="#686BAF" d="M427 510c7 7 24 15 31 17l-1 2c0 1-2 3-20-6 0 0-6-5-7-8l-3-5z"/></g><g display="block"><path fill="#7679C4" d="M473 586c0-2 0-9-4-15-1-1-4-5-9-7-9-4-19 0-23 5-6 6-3 16-2 17"/><path fill="#686BAF" d="M460 564l-3-1c-4 2-12 7-8 20l3 3h21c0-2 0-9-4-15-1-1-4-5-9-7z"/><path fill="#585E95" d="M464 567c3 5 6 12 3 19h6c0-2 0-9-4-15-1-1-2-3-5-4z"/></g><g display="block"><path fill="#4B606F" d="M394 542a4 4 0 11-7 0 4 4 0 017 0z"/><path fill="#FFF" d="M391 542a1 1 0 11-2-2 1 1 0 012 2z"/><path fill="#FFF" d="M392 543l-1-1h1v1z"/></g><g display="block"><path fill="#4B606F" d="M367 541a3 3 0 11-7 0 3 3 0 017 0z"/><path fill="#FFF" d="M364 541a1 1 0 11-2-1 1 1 0 012 1zM365 542v-1 1z"/></g><g display="block"><path fill="#C5C5D2" d="M254 444v96c0 7-6 13-14 13l-173-2c-7 0-13-6-13-14v-90c0-7 6-13 13-13l173-4c8 0 14 6 14 14z"/><path fill="#445053" d="M134 454h-1l1 7v4c0 6 4 8 9 8s10-2 10-8l-1-4 2-2a14 14 0 00-11-4l-5 1-4-2z"/><path fill="#B8B8C9" d="M149 506h-18l-61 45 153 2-74-47z"/><path fill="#A3A4BB" d="M240 430l-173 4h-1l170-3c7 0 12 5 12 12v95c0 7-5 12-12 12l-171-3c-5 0-9-3-11-8 1 7 7 12 13 12l173 2c6 0 11-3 13-9l1-2V441c-2-6-8-11-14-11z"/><path fill="#C5C5D2" d="M146 576l2-26 4-42c0-2-2-3-3-3h-17l-2 2-14 44-8 24c-1 4 1 7 4 7h32l1-6h1z"/><path fill="#A3A4BB" d="M172 580c0-2-1-4-3-4h-23-1l-1 6h27l1-2z"/><path fill="#C5C5D2" d="M316 574l-144-2c-2 0-5 2-5 5v5h157c0-5-3-8-8-8z"/><path fill="#A3A4BB" d="M276 578l2 4h46c0-5-3-8-8-8l-37-1c-2 1-3 3-3 5z"/></g><g display="block"><path fill="#B8ECDF" d="M315 259h118c10 0 19 8 19 19v56c0 10-9 19-19 19H315c-10 0-19-9-19-19v-56c0-11 9-19 19-19z"/><path fill="#B8ECDF" d="M375 367h-4l-8-15c-1-1 0-3 1-3h18c1 0 2 2 1 3l-8 15z"/><path fill="#F6F873" d="M389 316h3l8-4c4-4 6-9 5-14-1-4-3-7-6-9-3-3-7-3-11-2-4 0-6 1-9 3l-2 2-2 5h-1l-1 2h-13l-2 4 1 1h8l-1 1-2 2c-2 2-4 3-7 2-3 0-5-3-5-6s1-6 4-7l2-2c2-2 4-2 7-1l2 2h1l6-1c-1-3-3-4-5-6-3-2-7-3-11-2l-8 4-2 2c-2 3-4 8-3 12 0 4 2 7 5 9s7 3 11 3l9-4 1-2 2-3v1l2-2c0 2 2 5 4 6 2 3 6 4 10 4zm-8-15l4-5c1-2 3-3 5-3 4-1 7 1 8 5v2c0 3-1 5-3 7l-3 2h-7c-3-1-5-5-4-8z"/><path fill="#2FC5BA" d="M389 317c-4 0-8-1-11-4l-4-5v2c-4 4-8 6-13 7-4 0-8-1-11-3-4-3-5-6-6-10s1-9 4-12c3-5 7-7 12-8 4-1 8 0 11 2a14 14 0 015 6h1c3-4 7-7 12-8 5 0 9 0 12 3 4 2 6 5 6 9 1 6 0 11-4 15a19 19 0 01-12 6h-2zm-14-14l1 3 3 6c3 2 6 3 10 3h3c4-1 7-2 9-5 4-4 5-8 5-13-1-4-3-7-6-9s-6-3-11-2a16 16 0 00-13 12h-15v1l-2 4h10l-2 3c-3 3-5 4-8 3-4 0-7-3-7-7s2-7 5-9 6-2 8-1l3 2h2l4-1-4-5c-3-2-6-3-10-2s-8 3-11 7c-3 3-4 7-3 11 0 4 2 6 5 8 3 3 6 4 10 3 5-1 8-3 11-7l2-2 1-3zm-13-9l-4 1c-2 1-4 4-4 7s2 5 5 5c2 1 4 0 6-2h-6l-2-1v-2l3-4 1-1h13l1-3-5 2h-2l-2-1-1-1h-3zm27 15l-3-1c-3-1-5-5-4-8 1-5 3-7 7-8 3-1 5 0 7 1 1 1 3 3 3 5v1c0 4-2 7-5 9h-1l-4 1zm2-16l-1 1c-4 0-6 2-7 6 0 3 1 6 4 7h6c3-2 4-4 4-7v-2l-2-4-4-1z"/><path fill="#2DC4B9" d="M377 325h-32a2 2 0 010-3h32a2 2 0 110 3zM393 325h-10a2 2 0 010-3h10a2 2 0 110 3zM406 325h-7a2 2 0 010-3h7a2 2 0 110 3z"/></g><g display="block"><path fill="#FFF" d="M39 221h84c8 0 14 6 14 14v40c0 7-6 13-14 13H39c-7 0-13-6-13-13v-40c0-8 6-14 13-14z"/><path fill="#FFF" d="M83 298h-2l-7-11 2-2h12l1 2-6 11z"/><path fill="#CDC1E9" d="M106 248c-5-8-12-11-18-11l-12 3c-2 3-4 8-4 15l-2 6c-4 3-10 1-10-6h-4c1 3 2 10 9 11 6 1 10 0 12-2l2-2 1-4v12h7l2-4 4-2c3 0 7 4 7 6h7c2-4 4-15-1-22z"/><path fill="#A38FD6" d="M107 271h-7l-1-1c0-1-3-5-6-5s-4 3-4 5l-1 1h-7l-1-1v-7l-2 1c-2 3-7 4-13 3-10-1-10-12-10-12l1-1h4c0 5 4 8 7 8l3-2 2-5c0-20 12-20 17-20 8 0 15 5 20 13s2 18 0 21l-2 2zm-7-2h7c1-1 6-12 1-20s-12-12-19-12c-5 0-16 0-16 18l-2 6-4 2c-4 0-8-3-8-8h-2c0 3 1 10 9 11 5 0 9 0 11-3 3-2 3-5 3-5a1 1 0 011 0v11h6c1-2 3-6 6-6 4 0 7 4 7 6z"/><path fill="#A38FD6" d="M90 260c-2 0-5-1-7-3a1 1 0 012-1c1 2 3 3 5 3 4 0 8-3 8-8a8 8 0 00-14-5 1 1 0 11-1 0c2-3 4-4 7-4a9 9 0 010 18zM76 253a1 1 0 100-2 1 1 0 000 2z"/><path fill="#A4EBFA" d="M62 247c0-2-2-2-3-1-2 1-2 3-2 4 1 0 4-1 5-3zM53 252l1-1-1-2-2 1 2 2z"/><path fill="#A38FD6" d="M56 251a1 1 0 010-1l1-3 1-3h5v4a12 12 0 01-7 3zm5-6h-2l-1 3v1l4-2-1-2zM53 253v-1h-1l-2-2c-1-1 0-2 1-3s3 0 3 1v4a1 1 0 01-1 1zm-1-5l-1 1 2 2v-3h-1z"/></g><g display="block"><path fill="#FFF" d="M54 97h91c8 0 14 7 14 15v43c0 8-6 14-14 14H54c-8 0-14-6-14-14v-43c0-8 6-15 14-15z"/><path fill="#FFF" d="M101 180h-2l-7-11c-1-1 0-3 1-3h14l1 3-7 11z"/><path fill="#CCF4F9" d="M118 149c3-3-1-13-11-22-9-9-19-14-22-11s2 13 11 22c9 10 19 14 22 11z"/><path fill="#CCF4F9" d="M104 141c12-4 21-10 20-14-1-5-12-6-25-2-12 3-21 9-20 14 1 4 12 5 25 2z"/><path fill="#CCF4F9" d="M110 135c3-13 2-24-2-25-5-1-11 8-15 20-3 13-2 24 2 25 5 1 11-8 15-20z"/><path fill="#00C6E4" d="M113 153c-3 0-7-1-11-4a1 1 0 111-2c6 4 11 5 12 4 2-2 1-6 0-9a1 1 0 111-1c2 5 2 9 1 11l-4 1zM89 137l-1-1-3-3a1 1 0 112-1l2 3a1 1 0 010 2z"/><path fill="#00C6E4" d="M102 149l-7-5a1 1 0 111-2l7 5a1 1 0 01-1 2z"/><path fill="#00C6E4" d="M93 159l-1-1a1 1 0 110-1c3 1 6-3 10-9a1 1 0 011 0c-3 7-7 11-10 11zM88 149l-1-1v-4a1 1 0 012 0v4l-1 1zM95 119h-1v-1c4-7 8-11 11-10a1 1 0 010 2c-3-1-6 3-10 9zM96 144h-1l-3-4-3-3-1-1v-1h1l1 1 3 3 3 4a1 1 0 010 1zM92 127l-1-2 5-1 5-1h1l-1 1-5 1-4 2z"/><path fill="#00C6E4" d="M96 144a1 1 0 010-2l5-1 4-1 1 1a66 66 0 01-10 3zM101 124a1 1 0 010-1l8-1a1 1 0 110 1 44 44 0 00-8 1zM84 130a1 1 0 01-1-1l8-4 1 1v1a47 47 0 00-8 3z"/><path fill="#00C6E4" d="M106 141a1 1 0 01-1-1l8-3a1 1 0 110 1 49 49 0 01-7 3z"/><path fill="#00C6E4" d="M106 140l1-4 1-5"/><path fill="#00C6E4" d="M106 141h-1v-1l1-5 1-4 1-1 1 1-1 4v1l-2 5z"/><path fill="#00C6E4" d="M102 149a1 1 0 010-1l3-8h1v1l-3 7-1 1zM88 145l-1-1 1-8a1 1 0 111 0v8l-1 1z"/><path fill="#00C6E4" d="M86 145c-7 0-12-2-12-5-1-3 2-8 9-11h2l-1 1c-6 3-10 7-9 10 1 2 6 4 13 3l1 1-1 1h-2z"/><path fill="#00C6E4" d="M88 145a1 1 0 110-2l8-1 1 1-1 1-8 1zM91 127v-1l3-8a1 1 0 011 1l-3 7-1 1z"/><path fill="#00C6E4" d="M89 137l-1-1 1-4v-1l2-5a1 1 0 111 0l-1 5-1 1v4l-1 1zM82 126l-1-1c-2-4-3-8-1-10 3-3 8-2 15 3a1 1 0 11-1 1c-6-4-11-5-13-3-1 1-1 5 1 8a1 1 0 010 2z"/><path fill="#00C6E4" d="M101 124l-7-5a1 1 0 011-1l7 5a1 1 0 01-1 1z"/><path fill="#FFF" d="M99 137a3 3 0 100-6 3 3 0 000 6z"/><path fill="#00C6E4" d="M99 138a4 4 0 110-8 4 4 0 010 8zm0-7a2 2 0 100 5 2 2 0 000-5z"/><path fill="#FFF" d="M109 114a2 2 0 100-4 2 2 0 000 4z"/><path fill="#00C6E4" d="M109 115a3 3 0 110-5 3 3 0 010 5zm0-4a1 1 0 100 2 1 1 0 000-2z"/><path fill="#FFF" d="M89 156a2 2 0 100-4 2 2 0 000 4z"/><path fill="#00C6E4" d="M89 156a3 3 0 110-5 3 3 0 010 5zm0-3a1 1 0 000 2 1 1 0 000-2zM113 138a1 1 0 010-1c6-4 9-7 9-10-1-2-6-4-13-4h-1l1-1c8-1 13 1 14 5 1 3-2 7-10 11z"/><path fill="#00C6E4" d="M109 123l-1-1v-3-1a1 1 0 112 0v5h-1z"/><path fill="#00C6E4" d="M108 131h-1l1-9h1l1 1-1 8h-1z"/><path fill="#00C6E4" d="M108 131h-1v-1l-3-2-4-4a1 1 0 112-1l3 3 3 3 1 1a1 1 0 01-1 1z"/><path fill="#00C6E4" d="M110 134l-3-3a1 1 0 112-1l2 3a1 1 0 01-1 1z"/></g><g display="block"><path fill="#BEEDFF" d="M192 49h119c10 0 19 9 19 19v57c0 11-9 19-19 19H192c-10 0-19-8-19-19V68c0-10 9-19 19-19z"/><path fill="#BEEDFF" d="M253 159h-3l-9-15c0-2 1-3 2-3h17c2 0 3 1 2 3l-9 15z"/><path fill="#F8E05B" d="M235 109v-9c0-4 6-5 10-5h12c4 0 7-2 7-7V76c0-2 0-5-2-5l-9-2-7 1c-3 0-5 1-5 5v2l2 2h9v4h-15c-5 0-10 1-11 5-2 4-4 21 6 21h3z"/><path fill="#FF5364" d="M238 76h-3l-2-2-1-4-1 2h-3l5 5 5 1v-2z"/><path fill="#00B8F9" d="M236 79l-3-1-5-6v-1l2 1 1-1 1-1 1 2v2l2 1h3v1a15 15 0 000 2l-2 1zm-7-7l4 5 4 1v-2h-2l-3-2v-1-1l-1 1a17 17 0 01-2-1z"/><path fill="#00B8F9" d="M251 68l7 1c3 0 5 2 5 5v14c0 3-2 6-5 6h-15c-5 0-9 4-9 10v5h-4l-4-2c-3-5-2-14-1-18 0-4 3-6 7-6h19c1 0 2 0 2-2v-1l-2-2h-12v-4c0-3 0-4 5-5l7-1zm0-2l-7 1c-6 1-7 3-7 7v6h14v1h-14-5c-5 0-8 3-9 8-2 5-3 21 7 21h6v-6c0-5 2-9 7-9h15c4 0 7-3 7-7V74c0-4-3-7-7-7l-7-1z"/><path fill="#FFF" d="M243 75l-2-1 2-2 2 2-2 1z"/><path fill="#00B8F9" d="M243 73h1l-1 1-1-1h1zm0-2l-2 2c0 2 1 3 2 3s2-1 2-3l-2-2z"/><path fill="#6DD6FB" d="M251 125l-7-1c-3 0-7-3-7-6v-15c0-3 3-6 7-6h14c5 0 9-3 9-9v-5h5c2 0 3 0 4 2 4 4 3 14 2 18s-4 6-8 6h-20v4h14v4c0 4-1 6-6 7h-7v1z"/><path fill="#00B8F9" d="M272 83l4 2c3 4 2 14 1 18-1 3-3 6-7 6h-5-14-2v5h14v3c0 4 0 5-5 6l-7 1-7-1c-3 0-6-3-6-6v-14c0-3 3-5 6-5h14c6 0 10-4 10-10v-5h4zm0-2h-6v7c0 5-3 8-8 8h-14c-4 0-7 3-7 7v14c0 4 3 7 7 8h14c6-1 7-4 7-8v-5h-14v-2h19c4 0 8-2 9-7s2-22-7-22z"/><path fill="#FFF" d="M259 120l-2-2 2-1 1 1-1 2z"/><path fill="#00B8F9" d="M259 117v2l-1-1 1-1zm0-1c-2 0-3 1-3 2 0 2 1 3 3 3 1 0 2-1 2-3l-2-2z"/></g><g display="block"><path fill="#FFF" d="M386 188h87c7 0 14 6 14 14v41c0 8-7 14-14 14h-87c-8 0-14-6-14-14v-41c0-8 6-14 14-14z"/><path fill="#FFF" d="M431 268h-3l-6-11c-1-1 0-2 1-2h13l1 2-6 11z"/><path fill="#E2CFB0" d="M445 220a6 6 0 107 7c0-4-3-7-7-7zm0 9l-3-2c0-2 2-3 3-3 2 0 3 1 3 3 0 1-1 2-3 2z"/><path fill="#C59E61" d="M445 233a7 7 0 010-13c2 0 4 0 5 2 2 1 2 3 2 5 0 3-3 6-7 6zm0-12a6 6 0 106 6l-2-4-4-2zm0 9c-2 0-3-2-3-3 0-2 1-4 3-4s4 2 4 4c0 1-2 3-4 3zm0-6c-1 0-2 1-2 3l2 2 2-2c0-2-1-3-2-3z"/><path fill="#E2CFB0" d="M444 227v-14h-32v14c0 9 7 15 16 15h1c9 0 15-7 15-15z"/><path fill="#C59E61" d="M429 243h-4c-9 0-16-7-16-16v-14h36v14c0 9-7 16-16 16zm-19-29v13c0 8 7 15 15 15h4c8 0 15-7 15-15v-13h-34z"/><path fill="#C59E61" d="M438 220h-27a1 1 0 110-2h27a1 1 0 110 2z"/><path fill="#E2CFB0" d="M430 199l-3 5c-2 1-3 3 0 6-1-3 0-4 1-5 2-1 3-4 2-6z"/><path fill="#C59E61" d="M427 210c-2-1-2-2-2-3l1-4c2-1 3-2 3-4h1c2 2 0 5-1 6s-2 2-2 5zm3-9l-3 3-1 3v2l2-4 2-4z"/><path fill="#E2CFB0" d="M427 196c1 2 0 3-2 5-2 1-2 4-1 6 0-3 2-4 3-5s3-5 0-6z"/><path fill="#C59E61" d="M424 207c-1-2-1-5 1-7 2-1 2-2 1-4v-1h1l2 3-2 4-3 5zm4-10l-3 4-1 4 3-4 1-3v-1z"/><path fill="#B08046" d="M426 228l3-2c-2-1-3 0-5 1v4l2-3zM427 229l-3 3 5-1v-4l-2 2z"/><path fill="#E2CFB0" d="M445 243v-1h-31v1l2 2h27l2-2z"/><path fill="#C59E61" d="M443 245h-32l-3-2 1-1h36v1l-2 2zm-33-2l1 1h32l1-1h-34z"/></g><g display="block"><path fill="#FFF" d="M118 281h117c10 0 19 8 19 19v56c0 10-9 19-19 19H118c-11 0-19-9-19-19v-56c0-11 8-19 19-19z"/><path fill="#FFF" d="M177 389h-3l-8-15c-1-1 0-3 1-3h17c2 0 3 2 2 3l-9 15z"/><path fill="#F56C9A" d="M183 332c2-15 13-23 19-24 5 0 7-2 11 2h1v-1-1c-2-2-8-8-22-6-20 2-36 28-38 59l18 3 16-2c-2-7-6-19-5-30z"/><path fill="#F1447D" d="M171 363l-19-2-1-1c3-29 18-61 42-61 12 0 20 7 22 9l1 2-1 1-1 1-1-1c-1 0-4-3-10-2-5 0-18 6-20 22-1 10 3 23 6 29a1 1 0 010 1l-18 2zm-18-4a80 80 0 0034 1c-3-7-7-19-5-29 1-15 13-23 21-24 6-1 9 2 11 3v-1c-2-2-10-8-21-8-17 0-37 20-40 58zm29-28zm32-21zm0 0zM143 345l-1 1-1 4 1 1 5 1 1-1 1-5-1-1h-5zM153 330l2-3-1-1-4-2-1 1-2 3 1 1 4 2 1-1zM162 313l3-3v-1l-3-2h-1l-3 3v1l4 2zM175 301h1l2-1 1-1-2-2-1-1-3 2v1l2 2zM195 294h-4l-1 1 1 2h4l1-1-1-2zM206 299v1h1l2 2h1v-2l-3-1h-1z"/><path fill="#F1447D" d="M206 310l-1 1v1h3v-1l-2-1zM199 313h-1l-1 1 1 2h1l1-1v-1-1h-1zM194 323l1-1v-1l-2-3h-1l-1 2v1l2 2h1zM189 328l-2 2 1 1 3 2h1v-3l-2-2h-1zM188 342l3 2 1-1v-3l-3-2-2 1v2l1 1zM190 354v1h5l1-1-2-3v-1h-4l-1 1 1 3z"/><path fill="#F56C9A" d="M137 294l13-6 5 3-4 14-14-4v-1-6z"/><path fill="#F1447D" d="M151 306l-14-5-1-1 1-6 12-7h1l5 3v1l-4 14v1zm-14-6l14 5 4-14-5-3-12 6-1 6z"/><path fill="#FBCFDE" d="M142 299l-2 1 8 3-6-4zM144 298l6 4-1-7-5 3zM151 294v7l2-8-2 1zM148 294v-1l-3-1-1 4 4-2zM146 292l3 1v-3l-3 1v1zM140 295l2 1 1-3-3 1v1zM153 291l-2-1v2l2-1zM141 298v-1l-1-1-1 3 2-1z"/><path fill="#F1447D" d="M148 303l-9-3h-1l1-1 3-1 6 4 1 1a1 1 0 01-1 0zm0 0zm0 0zm-9-3l8 2-5-4-3 2z"/><path fill="#F1447D" d="M150 303h-1l-6-5v-1l6-3h1v9zm-7-6l6 5v-7l-6 2zm6-3zM151 302l-1-1v-7-1l3-1h1l-3 9v1zm-1-8l1 7 2-8-3 1zm3-2zm0 0zM143 296l1-4h1l3 1v1l-4 2h-1zm1-4l-1 4 5-3-4-1zM149 293l-4-1v-1l3-2h1v4zm-3-2l3 1v-2l-3 1zm3-1zM142 297h-1l-2-2v-1-1l4-1-1 4v1zm-2-3l2 2 1-4-3 2zm-1 0z"/><path fill="#F1447D" d="M150 293v-1-2-1l3 1v1l-2 2h-1zm0-1zm0-2v2l2-1-2-1zm2 1zM138 299v-1-2l1-1 2 2v1l-2 1h-1zm1-3v2l1-1-1-1zm0 0z"/></g><g display="block"><path fill="#F8D3EB" d="M127 157h104c9 0 17 7 17 17v49c0 9-8 16-17 16H127c-9 0-16-7-16-16v-49c0-10 7-17 16-17z"/><path fill="#F8D3EB" d="M180 252h-3l-7-13c-1-1 0-3 1-3h15c2 0 2 2 2 3l-8 13z"/><path fill="#FFBAEA" d="M202 200l-5 1-2-3v-2l1-3-2-1-2 1-1 2-4 7v-2l-1-2 1-3-1-1-3 1v2l-5 9-1 3v-1l1-6-1-1h-1s1-4-2-4l-6 3-4 3-2 1c-4-4-11-7-10-12 0-2 0-7 12-13 10-5 18-3 19 0 2 4-4 12-14 13-4 0-6-1-6-2h-1v1l4 3c1 0 6 1 12-1 6-3 11-9 9-15-1-6-11-8-20-5-5 2-11 5-15 9-5 5-5 9-5 10 1 6 9 10 12 13-2 1-8 4-9 8-2 4 0 6 1 7 5 1 9-1 11-5 3-3 2-8 1-10h1l3-2-1 5 2 6h1c2 0 2-1 3-2l2-4s-1 5 1 5l3-2 2-5 3-7 1 3 1 3v1l-1 1-3 4v1h4l2-1 2-4-1-3 1-1 3-6 1 3 1 2-4 5 1 3h2l2-1c1-1 3-2 3-4l-1-2 6-1c6 0 7 4 7 6l-2 2h-1l1 1c0-1 3-2 3-4 1-3-3-7-9-7zm-43 14c-1 2-4 3-5 3-1-1-1-4 1-6l5-3 1-1c1 2 0 5-2 7zm14-9l-3 6v-7l2-4 3-1-2 6zm11 5l-1 1 1-1 2-2 1-1c0 2-2 3-3 3zm9-1v-3l2-2v1l-2 4z"/><path fill="#D24692" d="M177 215h-1l-3-1-3 2-3-1-2-3-1 4c-3 4-6 6-10 6l-3-1-2-2c-1-1-2-4 0-7 1-3 5-5 8-7l-1-1c-4-3-9-6-10-11-1-2 1-7 6-12l15-9 9-1c7 0 12 2 13 7 2 6-4 14-11 16l-3 1 2 1 1 3 2 1 1-4 1-1v-1l4-1c3 0 3 2 3 2v1l-1 2v1l2-4 1-2c0-1 1-2 4-2 2 0 3 2 3 2v1l-1 2v4l5-1c4 0 7 1 9 3l2 6c0 3-3 5-4 5h-1l-2-2 1-2 2-1-1-2-5-2h-4v1l-3 6-2 1h-2-1l-2-1-1 2-3 1h-2-3l-1-2v1l-2 2zm-22 0c1 0 2 0 3-2l2-4-4 3-1 3zm28-11l-1 4a67 67 0 001-2l1-1-1-1zm-11 0l-1 1h1v-1zm18 1l2-3-2 2v1zm-13-27l-12 3c-7 3-11 7-11 11-1 3 2 5 5 7l3 3 5-3c2-1 3-3 5-3h-2l-5-1c-2-1-4-2-4-4v-3h1l2 1 4 1h1c7 0 11-4 13-7l1-4-6-1z"/><path fill="#EEB0D4" d="M202 200l-5 1-2-3v-2l1-3-2-1-2 1-1 2-4 7v-2l-1-2 1-3-1-1-3 1v2l-5 9-1 3v-1l1-6-1-1h-1s1-4-2-4l-6 3-4 3-2 1c-4-4-11-7-10-12 0-2 0-7 12-13 10-5 18-3 19 0 2 4-4 12-14 13-4 0-6-1-6-2h-1v1l4 3c1 0 6 1 12-1 6-3 11-9 9-15-1-6-11-8-20-5-5 2-11 5-15 9-5 5-5 9-5 10 1 6 9 10 12 13-2 1-8 4-9 8-2 4 0 6 1 7 5 1 9-1 11-5 3-3 2-8 1-10h1l3-2-1 5 2 6h1c2 0 2-1 3-2l2-4s-1 5 1 5l3-2 2-5 3-7 1 3 1 3v1l-1 1-3 4v1h4l2-1 2-4-1-3 1-1 3-6 1 3 1 2-4 5 1 3h2l2-1c1-1 3-2 3-4l-1-2 6-1c6 0 7 4 7 6l-2 2h-1l1 1c0-1 3-2 3-4 1-3-3-7-9-7zm-43 14c-1 2-4 3-5 3-1-1-1-4 1-6l5-3 1-1c1 2 0 5-2 7zm14-9l-3 6v-7l2-4 3-1-2 6zm11 5l-1 1 1-1 2-2 1-1c0 2-2 3-3 3zm9-1v-3l2-2v1l-2 4z"/><path fill="#FFF" d="M167 175c16-4 20 3 20 3l-2-4c-4-2-11-3-17 0a44 44 0 00-17 10s8-6 16-9z"/></g><g display="block"><path fill="#FFF" d="M279 126h84c8 0 14 6 14 13v40c0 8-6 14-14 14h-84c-7 0-13-6-13-14v-40c0-7 6-13 13-13z"/><path fill="#FFF" d="M323 203h-3l-6-11 1-2h13l1 2-6 11z"/><path fill="#F8E376" d="M332 149c2 2 5 2 7 0h1c-3 1-6 1-7-1-2-2-3-5-1-7h-1c-2 3-1 6 1 8zM325 156c-4-4-4-10-2-15l-2 2c-3 4-2 10 2 15 4 4 10 5 15 1l1-2c-4 3-10 2-14-1z"/><path fill="#F8E376" d="M316 165c-7-6-8-16-3-24l-4 3c-7 7-6 19 2 26 7 8 18 9 26 1l2-3c-7 5-17 4-23-3z"/><path fill="#E9C700" d="M332 150l-4-1c-2-2-3-6-1-9l1-1h1v1a5 5 0 002 6c2 1 4 1 6-1h1v1l-1 2-5 2zm-5-8c-1 2 0 5 2 6 2 2 5 1 7 0l-6-1c-2-1-3-3-3-5z"/><path fill="#E9C700" d="M329 162l-8-3c-6-4-7-10-3-16l2-2a1 1 0 011 1 11 11 0 0017 12h1v1l-1 2c-2 3-6 5-9 5zm-10-18c-4 5-2 11 3 14 5 4 11 3 15-1v-1c-4 2-9 2-13-1-4-2-6-7-5-11z"/><path fill="#E9C700" d="M323 178c-4 0-8-2-12-4-9-7-12-18-5-27l3-4h1v1a19 19 0 0030 21 1 1 0 011 0l-2 5a18 18 0 01-16 8zm-15-33l-1 2c-6 9-4 20 5 26 4 3 9 4 14 3a17 17 0 0013-9 20 20 0 01-31-22z"/></g><g display="block"><path fill="#FFD9DD" d="M368 97h87c8 0 14 7 14 14v42c0 8-6 14-14 14h-87c-8 0-14-6-14-14v-42c0-7 6-14 14-14z"/><path fill="#FFD9DD" d="M412 177h-2l-6-11c-1-1 0-2 1-2h12c2 0 2 1 2 2l-7 11z"/><path fill="#FF7684" d="M396 114h32l8 12v1l-24 25h-1l-24-25v-1l8-12h1z"/><path fill="#FF5364" d="M412 153h-1l-24-26v-1l8-12 1-1h32l1 1 7 11v2l-23 26h-1zm-24-27l24 26 23-26-7-11h-32l-8 11z"/><path fill="#FFBDC4" d="M401 129h-6s-1 0 0 0l13 15v-1l-7-14zM406 129l7 15 7-15h-14zM424 129l-6 13 12-13h-6zM418 125l1-1-5-5-6 6h10zM417 119l5 4 2-5h-6l-1 1zM401 119l3 4 5-5h-7l-1 1zM431 125v-1l-2-3-2 4h4zM399 125l1-1-2-3-2 4h3z"/><path fill="#FF5364" d="M408 145h-1l-15-16v-2h10l7 16-1 2zm-15-17l15 16-8-16h-7zm0 0zM412 146h-1l-8-18a1 1 0 010-1h17l1 1-8 18h-1zm-8-18l8 17 7-17h-15zM416 145h-1v-2l7-16h9v2l-14 16h-1zm7-17l-7 15 14-15h-7zm7 0zM418 126h-12l-1-1v-1l6-7h2l6 7v1l-1 1zm0-1zm-12 0zm0-1h12l-6-6-6 6zm0 0zM421 125l-1-1-6-6v-1l1-1h10v2l-3 6v1h-1zm0-2zm-5-6l5 6 3-6h-8zm8 0zm-9 0zM402 125l-1-1-3-6v-2h11l1 1-1 1-6 6-1 1zm0-1zm-2-7l2 6 6-6h-8zM431 126h-7l-1-1v-1l3-6h2l4 6a1 1 0 01-1 2zm-4-7l-3 6 7-1-4-5zM399 126h-6l-1-1v-1l4-6h1l1 1 2 5v1l-1 1zm-6-2h6l-2-5-4 5zm4-5z"/></g><g display="block"><path fill="#FFF" d="M243 206h104c9 0 16 7 16 16v49c0 9-7 17-16 17H243c-9 0-16-8-16-17v-49c0-9 7-16 16-16z"/><path fill="#FFF" d="M296 300h-3l-8-13 2-2h15c1 0 2 1 1 2l-7 13z"/><path fill="#FFE21A" d="M312 268h-41v-41h38c2 0 3 1 3 3v38z"/><path fill="#6092CE" d="M288 253h8v2h-5v2h4v2h-4v3h5v2h-8v-11zM303 256l-1-1h-1-1v1h-1l1 1h1l1 1h1l1 1v3l-1 1-1 1h-2-1l-2-1 2-2 1 1h2v-1-1h-1l-1-1h-2l-1-1v-2-1l1-1 2-1h3l1 1-1 2zM309 257h2l1 1 1 1v3l-1 1-1 1h-2-1l-1-1-1-1v-2-1-1l1-1 2-4h3l-3 4zm2 3l-1-1h-1-1v2l1 1 1-1 1-1z"/><path fill="#6092CE" d="M318 269h-47v-1-46-1h47l1 1v46l-1 1zm-46-2h45v-45h-45v45z"/></g></g></svg>