<?xml version="1.0" standalone="no"?><svg xmlns="http://www.w3.org/2000/svg" viewBox="0 0 1440 320"><path fill="#30c8d6" fill-opacity="1" d="M0,64L30,74.7C60,85,120,107,180,106.7C240,107,300,85,360,80C420,75,480,85,540,101.3C600,117,660,139,720,133.3C780,128,840,96,900,117.3C960,139,1020,213,1080,234.7C1140,256,1200,224,1260,224C1320,224,1380,256,1410,272L1440,288L1440,0L1410,0C1380,0,1320,0,1260,0C1200,0,1140,0,1080,0C1020,0,960,0,900,0C840,0,780,0,720,0C660,0,600,0,540,0C480,0,420,0,360,0C300,0,240,0,180,0C120,0,60,0,30,0L0,0Z"></path></svg>